<svg width="24" height="24" viewBox="0 0 24 24" fill="none" xmlns="http://www.w3.org/2000/svg">
<path d="M10.7329 5.07648C13.0623 4.79888 15.4185 5.2913 17.4418 6.47853C19.465 7.66576 21.0441 9.48256 21.9379 11.6515C22.0213 11.876 22.0213 12.123 21.9379 12.3475C21.5704 13.2385 21.0847 14.076 20.4939 14.8375" stroke="#404040" stroke-width="2" stroke-linecap="round" stroke-linejoin="round"/>
<path d="M14.084 14.158C13.5182 14.7045 12.7604 15.0069 11.9738 15C11.1872 14.9932 10.4348 14.6777 9.87856 14.1215C9.32233 13.5652 9.00683 12.8128 8.99999 12.0262C8.99316 11.2396 9.29554 10.4818 9.84201 9.916" stroke="#404040" stroke-width="2" stroke-linecap="round" stroke-linejoin="round"/>
<path d="M17.479 17.499C16.1525 18.2848 14.6725 18.776 13.1394 18.9394C11.6063 19.1028 10.056 18.9345 8.59365 18.4459C7.13133 17.9573 5.79121 17.1599 4.66423 16.1078C3.53725 15.0556 2.64977 13.7734 2.06202 12.348C1.97868 12.1235 1.97868 11.8765 2.06202 11.652C2.94865 9.50186 4.50869 7.69725 6.50802 6.509" stroke="#404040" stroke-width="2" stroke-linecap="round" stroke-linejoin="round"/>
<path d="M2 2L22 22" stroke="#404040" stroke-width="2" stroke-linecap="round" stroke-linejoin="round"/>
</svg>
