<svg xmlns="http://www.w3.org/2000/svg" width="24" height="24" fill="none" viewBox="0 0 24 24">
    <path stroke="#404040" stroke-linecap="round" stroke-linejoin="round" stroke-width="2" d="M10.733 5.076a10.744 10.744 0 0 1 11.205 6.576 1 1 0 0 1 0 .696 10.8 10.8 0 0 1-1.444 2.49m-6.41-.68a3 3 0 0 1-4.242-4.242"/>
    <path stroke="#404040" stroke-linecap="round" stroke-linejoin="round" stroke-width="2" d="M17.479 17.499a10.75 10.75 0 0 1-15.417-5.151 1 1 0 0 1 0-.696 10.75 10.75 0 0 1 4.446-5.143M2 2l20 20"/>
</svg>
