<svg xmlns="http://www.w3.org/2000/svg" width="24" height="24" fill="none" viewBox="0 0 24 24">
    <mask id="mask0_1_3518" width="20" height="24" x="2" y="0" maskUnits="userSpaceOnUse" style="mask-type:alpha">
        <path fill="#63A0FF" fill-rule="evenodd" d="M11.756.911h.488a2.22 2.22 0 0 1 2.218 2.218v.2a2.22 2.22 0 0 0 1.109 1.918l.477.278a2.22 2.22 0 0 0 2.218 0l.166-.09a2.22 2.22 0 0 1 3.027.81l.244.422a2.22 2.22 0 0 1-.81 3.027l-.166.1a2.22 2.22 0 0 0-1.108 1.93v.554a2.22 2.22 0 0 0 1.108 1.93l.167.088a2.22 2.22 0 0 1 .81 3.028l-.245.432a2.217 2.217 0 0 1-3.027.81l-.166-.089a2.22 2.22 0 0 0-2.218 0l-.477.277a2.22 2.22 0 0 0-1.11 1.919v.2a2.22 2.22 0 0 1-2.217 2.217h-.488a2.22 2.22 0 0 1-2.218-2.218v-.2a2.22 2.22 0 0 0-1.109-1.918l-.477-.277a2.22 2.22 0 0 0-2.218 0l-.166.089a2.22 2.22 0 0 1-3.027-.81l-.244-.421a2.22 2.22 0 0 1 .81-3.028l.166-.1a2.22 2.22 0 0 0 1.109-1.929v-.566a2.22 2.22 0 0 0-1.11-1.907l-.166-.11a2.22 2.22 0 0 1-.81-3.028l.245-.422a2.22 2.22 0 0 1 3.027-.81l.166.09a2.22 2.22 0 0 0 2.218 0l.477-.278A2.22 2.22 0 0 0 9.54 3.33v-.2A2.22 2.22 0 0 1 11.755.911m3.571 11.09a3.327 3.327 0 1 1-6.653 0 3.327 3.327 0 0 1 6.653 0" clip-rule="evenodd"/>
    </mask>
    <g mask="url(#mask0_1_3518)">
        <path fill="#60A5FA" d="M22.392 6 12 0 1.608 6 12 12z"/>
        <path fill="#2563EB" d="M22.393 18V6L12 12v12z"/>
        <path fill="#3B82F6" d="M1.608 18 12 24V12L1.608 6z"/>
    </g>
</svg>
