<?xml version="1.0" encoding="UTF-8" standalone="no"?>
<svg
   width="12"
   height="13"
   viewBox="0 0 12 13"
   fill="none"
   version="1.1"
   id="svg15743"
   sodipodi:docname="config-program-icon3.svg"
   inkscape:version="1.1.2 (0a00cf5339, 2022-02-04)"
   xmlns:inkscape="http://www.inkscape.org/namespaces/inkscape"
   xmlns:sodipodi="http://sodipodi.sourceforge.net/DTD/sodipodi-0.dtd"
   xmlns="http://www.w3.org/2000/svg"
   xmlns:svg="http://www.w3.org/2000/svg">
  <defs
     id="defs15747" />
  <sodipodi:namedview
     id="namedview15745"
     pagecolor="#ffffff"
     bordercolor="#666666"
     borderopacity="1.0"
     inkscape:pageshadow="2"
     inkscape:pageopacity="0.0"
     inkscape:pagecheckerboard="0"
     showgrid="false"
     inkscape:zoom="6.9622822"
     inkscape:cx="-18.456592"
     inkscape:cy="4.3089319"
     inkscape:window-width="1280"
     inkscape:window-height="720"
     inkscape:window-x="22"
     inkscape:window-y="79"
     inkscape:window-maximized="1"
     inkscape:current-layer="svg15743" />
  <g
     id="g61364"
     transform="translate(-0.28726213,1.4363106)">
    <path
       id="path16275"
       style="fill:#63a0ff;fill-opacity:1;stroke-width:2.13543;stroke-linecap:round;stroke-linejoin:round"
       inkscape:transform-center-x="1.6828228"
       inkscape:transform-center-y="2.09e-05"
       d="M 2.3105469,3.1386719 C 2.231315,3.2851611 2.1568817,3.436721 2.0996094,3.5859375 L 0.43945312,3.8574219 C 0.29240443,3.8814686 0.17432779,4.023816 0.16796875,4.1757812 L 0.11523438,6.7285156 C 0.10769265,6.8953319 0.22152762,7.0173147 0.3671875,7.046875 l 1.6503906,0.2050781 c 0.149348,0.3819346 0.3355925,0.7373508 0.5820313,1.0664063 l -0.65625,1.5976562 c -0.05313,0.1560984 -0.00619,0.3176614 0.1269531,0.3945314 l 2.1308594,1.228515 c 0.1331535,0.07688 0.3008845,0.04256 0.3984375,-0.08789 L 5.65625,10.083984 c 0.2212402,0.02649 0.4424025,0.03192 0.6621094,0.02344 V 7.7148438 C 5.920524,7.7248592 5.5209947,7.6313328 5.1582031,7.421875 4.0986518,6.8101428 3.734413,5.427397 4.3085938,4.2929688 Z" />
    <path
       id="path16360"
       style="fill:#3874d8;fill-opacity:1;stroke-width:2.13543;stroke-linecap:round;stroke-linejoin:round"
       inkscape:transform-center-x="-1.6828228"
       inkscape:transform-center-y="2.09e-05"
       d="M 10.554688,3.0078125 8.4804688,4.2050781 C 8.8028576,4.8940329 8.7901742,5.7453579 8.3691406,6.4746094 7.9222874,7.2485819 7.1250988,7.6945341 6.3183594,7.7148438 v 2.3925782 c 0.1856704,-0.0072 0.3695762,-0.02304 0.5527344,-0.05273 l 1.0019531,1.324218 c 0.095116,0.11716 0.2616171,0.150477 0.4023437,0.06055 l 2.1835934,-1.322265 c 0.140656,-0.09 0.196892,-0.2519718 0.138672,-0.3945318 L 10.015625,8.15625 c 0.123477,-0.1621684 0.238405,-0.3366852 0.349609,-0.5292969 0.107831,-0.186768 0.203984,-0.3792099 0.277344,-0.5703125 l 1.660156,-0.2714844 c 0.147019,-0.024065 0.265085,-0.1664129 0.271485,-0.3183593 l 0.05273,-2.5527344 C 12.634583,3.7472585 12.520643,3.6272713 12.375,3.5976562 L 10.724609,3.3925781 C 10.673287,3.2613202 10.615667,3.1329848 10.554688,3.0078125 Z" />
    <path
       id="path16380"
       style="fill:#99bfff;fill-opacity:1;stroke-width:2.13543;stroke-linecap:round;stroke-linejoin:round"
       inkscape:transform-center-x="-0.84139295"
       inkscape:transform-center-y="1.4578557"
       d="m 8.3828125,-0.93554688 c -0.089247,0.003647 -0.1758744,0.0473802 -0.2402344,0.12695313 l -1.0566406,1.3671875 c -0.408199,-0.0488996 -0.8183181,-0.0277468 -1.2148437,0.03125 L 4.8691406,-0.73632812 C 4.7740418,-0.85348112 4.6075118,-0.8868425 4.4667969,-0.796875 L 2.2890625,0.52929688 C 2.1517377,0.6134319 2.086618,0.77806369 2.1503906,0.92382812 l 0.59375,1.57226568 C 2.6152208,2.6551195 2.4814168,2.8346885 2.3769531,3.015625 c -0.022898,0.039661 -0.044163,0.081921 -0.066406,0.1230469 l 1.9980469,1.1542969 c 0.021092,-0.041672 0.040812,-0.084053 0.064453,-0.125 C 5.0402611,3.0123197 6.4855121,2.5864998 7.5839844,3.2207031 7.9892841,3.454703 8.2919661,3.8022424 8.4804688,4.2050781 L 10.554688,3.0078125 C 10.438225,2.768751 10.304333,2.5401956 10.142578,2.3242188 l 0.65625,-1.5976563 c 0.05868,-0.15289033 0.0062,-0.31570823 -0.126953,-0.39257812 L 8.5410156,-0.89648438 c -0.049932,-0.0288286 -0.104655,-0.0412505 -0.1582031,-0.0390625 z" />
  </g>
</svg>
