<svg width="24" xmlns="http://www.w3.org/2000/svg" height="24" fill="none"><g data-testid="Graphics / refresh-cw.svg"><g class="fills"><rect rx="0" ry="0" width="24" height="24" class="frame-background"/></g><g class="frame-children"><g data-testid="Graphics / refresh-cw.svg" class="feather feather-refresh-cw" style="fill: rgb(0, 0, 0);"><g data-testid="svg-polyline"><path d="M23 4v6h-6" fill="none" style="fill: none;" class="fills"/><g fill="none" stroke-linejoin="round" class="strokes"><path d="M23 4v6h-6" style="fill: none; stroke-width: 2; stroke: rgb(56, 116, 216); stroke-opacity: 1;" class="stroke-shape"/></g></g><g data-testid="svg-polyline"><path d="M1 20v-6h6" fill="none" style="fill: none;" class="fills"/><g fill="none" stroke-linejoin="round" class="strokes"><path d="M1 20v-6h6" style="fill: none; stroke-width: 2; stroke: rgb(56, 116, 216); stroke-opacity: 1;" class="stroke-shape"/></g></g><g data-testid="svg-path"><path d="M3.51 9a9 9 0 0 1 14.85-3.36L23 10M1 14l4.64 4.36A9 9 0 0 0 20.49 15" fill="none" style="fill: none;" class="fills"/><g fill="none" stroke-linejoin="round" class="strokes"><path d="M3.51 9a9 9 0 0 1 14.85-3.36L23 10M1 14l4.64 4.36A9 9 0 0 0 20.49 15" style="fill: none; stroke-width: 2; stroke: rgb(56, 116, 216); stroke-opacity: 1;" class="stroke-shape"/></g></g></g></g></g></svg>