<svg width="24" height="24" viewBox="0 0 24 24" fill="none" xmlns="http://www.w3.org/2000/svg">
<path d="M12 22C17.5228 22 22 17.5228 22 12C22 6.47715 17.5228 2 12 2C6.47715 2 2 6.47715 2 12C2 17.5228 6.47715 22 12 22Z" stroke="#404040" stroke-width="2" stroke-linecap="round" stroke-linejoin="round"/>
<path d="M7.125,12.000C7.125,14.692,9.308,16.875,12.000,16.875C14.692,16.875,16.875,14.692,16.875,12.000C16.875,9.308,14.692,7.125,12.000,7.125C10.637,7.130,9.329,7.662,8.349,8.609L7.125,9.833"
  style="fill: none; stroke-width: 2; stroke: #404040; stroke-opacity: 1;"
  class="stroke-shape"/>
<path d="M7.125,7.125L7.125,9.833L9.833,9.833"
      style="fill: none; stroke-width: 2; stroke: #404040; stroke-opacity: 1;"
      class="stroke-shape"/>
</svg>
