<svg xmlns="http://www.w3.org/2000/svg" xml:space="preserve" id="svg1" width="24" height="24" version="1.1" viewBox="0 0 4.8 4.8">
    <g id="layer1" transform="translate(-74.3 -69.124)">
        <g id="g1" style="fill:none" transform="translate(98.473 142.018)scale(.26458)">
            <g id="g20" transform="translate(-57.134 -176.885)scale(.35778)">
                <g id="g19" stroke="#2563eb" stroke-linecap="round" stroke-linejoin="round" stroke-width="4" style="fill:none;stroke:#ca8a04;stroke-opacity:1" transform="translate(-93.278 -273.097)">
                    <path id="path1-9" d="M42 24A18 18 0 0 0 24 6a19.5 19.5 0 0 0-13.48 5.48L6 16" style="stroke:#ca8a04;stroke-opacity:1"/>
                    <path id="path2-07" d="M6 6v10h10" style="stroke:#ca8a04;stroke-opacity:1"/>
                    <path id="path3-84" d="M6 24a18 18 0 0 0 18 18 19.5 19.5 0 0 0 13.48-5.48L42 32" style="stroke:#ca8a04;stroke-opacity:1"/>
                    <path id="path4-7" d="M32 32h10v10" style="stroke:#ca8a04;stroke-opacity:1"/>
                </g>
                <path id="path19" d="m-89.364-227.088 37.466-46.418" style="font-variation-settings:normal;opacity:1;vector-effect:none;fill:none;fill-opacity:1;stroke:#ca8a04;stroke-width:4;stroke-linecap:round;stroke-linejoin:round;stroke-miterlimit:4;stroke-dasharray:none;stroke-dashoffset:0;stroke-opacity:1;-inkscape-stroke:none;stop-color:#000;stop-opacity:1"/>
            </g>
        </g>
    </g>
</svg>
