<?xml version="1.0" encoding="UTF-8" standalone="no"?>
<!-- Created with Inkscape (http://www.inkscape.org/) -->

<svg
   width="25"
   height="25"
   viewBox="0 0 5.4987516 3.4393978"
   version="1.1"
   id="svg1"
   xml:space="preserve"
   xmlns="http://www.w3.org/2000/svg"
   xmlns:svg="http://www.w3.org/2000/svg"><defs
     id="defs1" /><g
     id="layer1"
     transform="translate(-121.8357,-112.70082)"><g
       style="fill:none"
       id="g1"
       transform="matrix(0.26458333,0,0,0.26458333,98.472582,142.01773)"><g
         id="g7"
         style="stroke-width:1.99937;stroke-dasharray:none"><g
           id="g6"
           transform="translate(-50.627199,-8.486533)"
           style="fill:none;stroke-width:1.99937;stroke-dasharray:none"><path
             d="m 43.0001,33.8393 v -9.6786 c 0,-0.7178 -0.3846,-1.3805 -1.0077,-1.7365 L 33.4923,17.567 c -0.6149,-0.3513 -1.3697,-0.3513 -1.9846,0 l -8.5,4.8572 C 22.3846,22.7802 22,23.4429 22,24.1606 v 9.6787 c 0,0.7177 0.3846,1.3804 1.0077,1.7365 l 8.5001,4.8571 c 0.6149,0.3513 1.3697,0.3513 1.9846,0 l 8.5,-4.8571 c 0.6231,-0.3561 1.0077,-1.0188 1.0077,-1.7365 z"
             fill="#a3a3a3"
             id="path2"
             style="fill:none;stroke:#000000;stroke-width:1.99937;stroke-dasharray:none;stroke-opacity:1" /><path
             d="m 22,33.8393 c 0,0.7177 0.3846,1.3804 1.0077,1.7365 l 8.5198,4.8684 C 31.9608,40.6918 32.5,40.3789 32.5,39.8798 v -9.7192 c 0,-0.7177 -0.3846,-1.3804 -1.0077,-1.7365 L 22.9725,23.5557 C 22.5392,23.3081 22,23.621 22,24.1201 Z"
             fill="#525252"
             id="path5"
             style="fill:none;stroke:#000000;stroke-width:1.99937;stroke-dasharray:none;stroke-opacity:1" /><path
             style="fill:none;fill-opacity:0.11;stroke:#000000;stroke-width:1.99937;stroke-linejoin:round;stroke-dasharray:none;stroke-opacity:1"
             d="M 32.26602,29.27672 42.66949,23.21047"
             id="path6" /></g><g
           id="g2"
           style="fill:#c8c9cc;fill-opacity:1;stroke-width:1.99937;stroke-dasharray:none"
           transform="translate(-34.697769,0.46888876)"><path
             d="m 43.0001,33.8393 v -9.6786 c 0,-0.7178 -0.3846,-1.3805 -1.0077,-1.7365 L 33.4923,17.567 c -0.6149,-0.3513 -1.3697,-0.3513 -1.9846,0 l -8.5,4.8572 C 22.3846,22.7802 22,23.4429 22,24.1606 v 9.6787 c 0,0.7177 0.3846,1.3804 1.0077,1.7365 l 8.5001,4.8571 c 0.6149,0.3513 1.3697,0.3513 1.9846,0 l 8.5,-4.8571 c 0.6231,-0.3561 1.0077,-1.0188 1.0077,-1.7365 z"
             fill="#a3a3a3"
             id="path3"
             style="fill:#c8c9cc;fill-opacity:1;stroke:#000000;stroke-width:1.99937;stroke-dasharray:none;stroke-opacity:1" /><path
             d="m 22,33.8393 c 0,0.7177 0.3846,1.3804 1.0077,1.7365 l 8.5198,4.8684 C 31.9608,40.6918 32.5,40.3789 32.5,39.8798 v -9.7192 c 0,-0.7177 -0.3846,-1.3804 -1.0077,-1.7365 L 22.9725,23.5557 C 22.5392,23.3081 22,23.621 22,24.1201 Z"
             fill="#525252"
             id="path4"
             style="fill:#c8c9cc;fill-opacity:1;stroke:#000000;stroke-width:1.99937;stroke-dasharray:none;stroke-opacity:1" /><path
             style="fill:#c8c9cc;fill-opacity:1;stroke:#000000;stroke-width:1.99937;stroke-linejoin:round;stroke-dasharray:none;stroke-opacity:1"
             d="M 32.26602,29.27672 42.66949,23.21047"
             id="path1" /></g></g><g
         style="fill:none;stroke:currentColor;stroke-width:1.99937;stroke-linecap:round;stroke-linejoin:round;stroke-dasharray:none"
         id="g8"
         transform="translate(13.51969,1.8690794)"><rect
           x="16"
           y="16"
           width="6"
           height="6"
           rx="1"
           id="rect1"
           style="stroke-width:1.99937;stroke-dasharray:none" /><rect
           x="2"
           y="16"
           width="6"
           height="6"
           rx="1"
           id="rect2"
           style="stroke-width:1.99937;stroke-dasharray:none" /><rect
           x="9"
           y="2"
           width="6"
           height="6"
           rx="1"
           id="rect3"
           style="stroke-width:1.99937;stroke-dasharray:none" /><path
           d="m 5,16 v -3 a 1,1 0 0 1 1,-1 h 12 a 1,1 0 0 1 1,1 v 3"
           id="path3-1"
           style="stroke-width:1.99937;stroke-dasharray:none" /><path
           d="M 12,12 V 8"
           id="path4-2"
           style="stroke-width:1.99937;stroke-dasharray:none" /></g><g
         style="fill:none"
         id="g9"
         transform="translate(-73.577387,-72.380264)"><path
           d="M 24,44 C 35.0457,44 44,35.0457 44,24 44,12.9543 35.0457,4 24,4 12.9543,4 4,12.9543 4,24 4,35.0457 12.9543,44 24,44 Z"
           stroke="#16a34a"
           stroke-width="4"
           stroke-linecap="round"
           stroke-linejoin="round"
           id="path1-1" /><path
           d="m 18,24 4,4 8,-8"
           stroke="#16a34a"
           stroke-width="4"
           stroke-linecap="round"
           stroke-linejoin="round"
           id="path2-7" /></g><g
         style="fill:none"
         id="g10"
         transform="translate(-10.582046,-70.971158)"><path
           d="M 24,44 C 35.0457,44 44,35.0457 44,24 44,12.9543 35.0457,4 24,4 12.9543,4 4,12.9543 4,24 4,35.0457 12.9543,44 24,44 Z"
           stroke="#ca8a04"
           stroke-width="4"
           stroke-linecap="round"
           stroke-linejoin="round"
           id="path1-0" /><path
           d="m 34,24 h 0.02"
           stroke="#ca8a04"
           stroke-width="4"
           stroke-linecap="round"
           stroke-linejoin="round"
           id="path2-8" /><path
           d="m 24,24 h 0.02"
           stroke="#ca8a04"
           stroke-width="4"
           stroke-linecap="round"
           stroke-linejoin="round"
           id="path3-8" /><path
           d="m 14,24 h 0.02"
           stroke="#ca8a04"
           stroke-width="4"
           stroke-linecap="round"
           stroke-linejoin="round"
           id="path4-9" /></g><path
         d="m -23.305418,-43.901855 h 0.02"
         stroke="#ca8a04"
         stroke-width="4"
         stroke-linecap="round"
         stroke-linejoin="round"
         id="path2-8-8"
         style="fill:none" /><g
         id="g12"><path
           d="m 108.06454,-98.80448 h 0.02"
           stroke="#ca8a04"
           stroke-width="4"
           stroke-linecap="round"
           stroke-linejoin="round"
           id="path3-8-0"
           style="fill:none;stroke:#000000;stroke-width:1.99937;stroke-dasharray:none;stroke-opacity:1" /><path
           d="m 102.0501,-98.80448 h 0.02"
           stroke="#ca8a04"
           stroke-width="4"
           stroke-linecap="round"
           stroke-linejoin="round"
           id="path4-9-3"
           style="fill:none;stroke:#000000;stroke-width:1.99937;stroke-dasharray:none;stroke-opacity:1" /><g
           style="fill:none"
           id="g11"
           transform="translate(85.301223,-116.44894)"><path
             d="M 20,6.64453 9,17.6445 l -5,-5"
             stroke="#000000"
             stroke-width="2"
             stroke-linecap="round"
             stroke-linejoin="round"
             id="path1-2"
             style="stroke-width:1.99937;stroke-dasharray:none" /></g></g></g></g></svg>
