<svg width="25" height="25" viewBox="0 0 24 25" fill="none" xmlns="http://www.w3.org/2000/svg">
<path d="M22 12.2529H2" stroke="black" stroke-width="2" stroke-linecap="round" stroke-linejoin="round"/>
<path d="M5.45 5.36293L2 12.2529V18.2529C2 18.7834 2.21071 19.2921 2.58579 19.6671C2.96086 20.0422 3.46957 20.2529 4 20.2529H20C20.5304 20.2529 21.0391 20.0422 21.4142 19.6671C21.7893 19.2921 22 18.7834 22 18.2529V12.2529L18.55 5.36293C18.3844 5.02972 18.1292 4.7493 17.813 4.55321C17.4967 4.35712 17.1321 4.25313 16.76 4.25293H7.24C6.86792 4.25313 6.50326 4.35712 6.18704 4.55321C5.87083 4.7493 5.61558 5.02972 5.45 5.36293Z" stroke="black" stroke-width="2" stroke-linecap="round" stroke-linejoin="round"/>
<path d="M6 16.2529H6.01" stroke="black" stroke-width="2" stroke-linecap="round" stroke-linejoin="round"/>
<path d="M10 16.2529H10.01" stroke="black" stroke-width="2" stroke-linecap="round" stroke-linejoin="round"/>
</svg>
