<svg xmlns="http://www.w3.org/2000/svg" xml:space="preserve" width="24" height="24" viewBox="0 0 4.8 4.8">
    <g style="fill:none">
        <g style="stroke-width:1.99937;stroke-dasharray:none">
            <g style="fill:none;stroke-width:1.99937;stroke-dasharray:none">
                <path fill="#a3a3a3" d="M43 33.84v-9.68a2 2 0 0 0-1.008-1.736l-8.5-4.857a2 2 0 0 0-1.984 0l-8.5 4.857A2 2 0 0 0 22 24.161v9.678a2 2 0 0 0 1.008 1.737l8.5 4.857a2 2 0 0 0 1.984 0l8.5-4.857A2 2 0 0 0 43 33.839z" style="fill:none;stroke:#000;stroke-width:1.99937;stroke-dasharray:none;stroke-opacity:1" transform="matrix(.12313 0 0 .12313 -2.582 -1.722)"/>
                <path fill="#525252" d="M22 33.84a2 2 0 0 0 1.008 1.736l8.52 4.868a.65.65 0 0 0 .972-.564v-9.72a2 2 0 0 0-1.008-1.736l-8.52-4.868a.65.65 0 0 0-.972.564Z" style="fill:none;stroke:#000;stroke-width:1.99937;stroke-dasharray:none;stroke-opacity:1" transform="matrix(.12313 0 0 .12313 -2.582 -1.722)"/>
                <path d="m32.266 29.277 10.403-6.067" style="fill:none;fill-opacity:.11;stroke:#000;stroke-width:1.99937;stroke-linejoin:round;stroke-dasharray:none;stroke-opacity:1" transform="matrix(.12313 0 0 .12313 -2.582 -1.722)"/>
            </g>
            <g style="fill:#c8c9cc;fill-opacity:1;stroke-width:1.99937;stroke-dasharray:none">
                <path fill="#a3a3a3" d="M43 33.84v-9.68a2 2 0 0 0-1.008-1.736l-8.5-4.857a2 2 0 0 0-1.984 0l-8.5 4.857A2 2 0 0 0 22 24.161v9.678a2 2 0 0 0 1.008 1.737l8.5 4.857a2 2 0 0 0 1.984 0l8.5-4.857A2 2 0 0 0 43 33.839z" style="fill:#c8c9cc;fill-opacity:1;stroke:#000;stroke-width:1.99937;stroke-dasharray:none;stroke-opacity:1" transform="matrix(.12313 0 0 .12313 -.621 -.62)"/>
                <path fill="#525252" d="M22 33.84a2 2 0 0 0 1.008 1.736l8.52 4.868a.65.65 0 0 0 .972-.564v-9.72a2 2 0 0 0-1.008-1.736l-8.52-4.868a.65.65 0 0 0-.972.564Z" style="fill:#c8c9cc;fill-opacity:1;stroke:#000;stroke-width:1.99937;stroke-dasharray:none;stroke-opacity:1" transform="matrix(.12313 0 0 .12313 -.621 -.62)"/>
                <path d="m32.266 29.277 10.403-6.067" style="fill:#c8c9cc;fill-opacity:1;stroke:#000;stroke-width:1.99937;stroke-linejoin:round;stroke-dasharray:none;stroke-opacity:1" transform="matrix(.12313 0 0 .12313 -.621 -.62)"/>
            </g>
        </g>
    </g>
</svg>
