<?xml version="1.0" encoding="UTF-8" standalone="no"?>
<!-- Created with Inkscape (http://www.inkscape.org/) -->

<svg
   width="48"
   height="48"
   viewBox="0 0 9.7896156 8.5706177"
   version="1.1"
   id="svg1"
   xml:space="preserve"
   xmlns="http://www.w3.org/2000/svg"
   xmlns:svg="http://www.w3.org/2000/svg"><defs
     id="defs1" /><g
     id="layer1"
     transform="translate(-89.48395,-89.100973)"><g
       style="fill:none"
       id="g1"
       transform="matrix(0.26458333,0,0,0.26458333,98.472582,142.01773)"><g
         id="g7"
         style="stroke-width:1.99937;stroke-dasharray:none"><g
           id="g6"
           transform="translate(-50.627199,-8.486533)"
           style="fill:none;stroke-width:1.99937;stroke-dasharray:none"><path
             d="m 43.0001,33.8393 v -9.6786 c 0,-0.7178 -0.3846,-1.3805 -1.0077,-1.7365 L 33.4923,17.567 c -0.6149,-0.3513 -1.3697,-0.3513 -1.9846,0 l -8.5,4.8572 C 22.3846,22.7802 22,23.4429 22,24.1606 v 9.6787 c 0,0.7177 0.3846,1.3804 1.0077,1.7365 l 8.5001,4.8571 c 0.6149,0.3513 1.3697,0.3513 1.9846,0 l 8.5,-4.8571 c 0.6231,-0.3561 1.0077,-1.0188 1.0077,-1.7365 z"
             fill="#a3a3a3"
             id="path2"
             style="fill:none;stroke:#000000;stroke-width:1.99937;stroke-dasharray:none;stroke-opacity:1" /><path
             d="m 22,33.8393 c 0,0.7177 0.3846,1.3804 1.0077,1.7365 l 8.5198,4.8684 C 31.9608,40.6918 32.5,40.3789 32.5,39.8798 v -9.7192 c 0,-0.7177 -0.3846,-1.3804 -1.0077,-1.7365 L 22.9725,23.5557 C 22.5392,23.3081 22,23.621 22,24.1201 Z"
             fill="#525252"
             id="path5"
             style="fill:none;stroke:#000000;stroke-width:1.99937;stroke-dasharray:none;stroke-opacity:1" /><path
             style="fill:none;fill-opacity:0.11;stroke:#000000;stroke-width:1.99937;stroke-linejoin:round;stroke-dasharray:none;stroke-opacity:1"
             d="M 32.26602,29.27672 42.66949,23.21047"
             id="path6" /></g><g
           id="g2"
           style="fill:#c8c9cc;fill-opacity:1;stroke-width:1.99937;stroke-dasharray:none"
           transform="translate(-34.697769,0.46888876)"><path
             d="m 43.0001,33.8393 v -9.6786 c 0,-0.7178 -0.3846,-1.3805 -1.0077,-1.7365 L 33.4923,17.567 c -0.6149,-0.3513 -1.3697,-0.3513 -1.9846,0 l -8.5,4.8572 C 22.3846,22.7802 22,23.4429 22,24.1606 v 9.6787 c 0,0.7177 0.3846,1.3804 1.0077,1.7365 l 8.5001,4.8571 c 0.6149,0.3513 1.3697,0.3513 1.9846,0 l 8.5,-4.8571 c 0.6231,-0.3561 1.0077,-1.0188 1.0077,-1.7365 z"
             fill="#a3a3a3"
             id="path3"
             style="fill:#c8c9cc;fill-opacity:1;stroke:#000000;stroke-width:1.99937;stroke-dasharray:none;stroke-opacity:1" /><path
             d="m 22,33.8393 c 0,0.7177 0.3846,1.3804 1.0077,1.7365 l 8.5198,4.8684 C 31.9608,40.6918 32.5,40.3789 32.5,39.8798 v -9.7192 c 0,-0.7177 -0.3846,-1.3804 -1.0077,-1.7365 L 22.9725,23.5557 C 22.5392,23.3081 22,23.621 22,24.1201 Z"
             fill="#525252"
             id="path4"
             style="fill:#c8c9cc;fill-opacity:1;stroke:#000000;stroke-width:1.99937;stroke-dasharray:none;stroke-opacity:1" /><path
             style="fill:#c8c9cc;fill-opacity:1;stroke:#000000;stroke-width:1.99937;stroke-linejoin:round;stroke-dasharray:none;stroke-opacity:1"
             d="M 32.26602,29.27672 42.66949,23.21047"
             id="path1" /></g></g><g
         style="fill:none;stroke:currentColor;stroke-width:1.99937;stroke-linecap:round;stroke-linejoin:round;stroke-dasharray:none"
         id="g8"
         transform="translate(13.51969,1.8690794)"><rect
           x="16"
           y="16"
           width="6"
           height="6"
           rx="1"
           id="rect1"
           style="stroke-width:1.99937;stroke-dasharray:none" /><rect
           x="2"
           y="16"
           width="6"
           height="6"
           rx="1"
           id="rect2"
           style="stroke-width:1.99937;stroke-dasharray:none" /><rect
           x="9"
           y="2"
           width="6"
           height="6"
           rx="1"
           id="rect3"
           style="stroke-width:1.99937;stroke-dasharray:none" /><path
           d="m 5,16 v -3 a 1,1 0 0 1 1,-1 h 12 a 1,1 0 0 1 1,1 v 3"
           id="path3-1"
           style="stroke-width:1.99937;stroke-dasharray:none" /><path
           d="M 12,12 V 8"
           id="path4-2"
           style="stroke-width:1.99937;stroke-dasharray:none" /></g><g
         style="fill:none"
         id="g9"
         transform="translate(-73.577387,-72.380264)"><path
           d="M 24,44 C 35.0457,44 44,35.0457 44,24 44,12.9543 35.0457,4 24,4 12.9543,4 4,12.9543 4,24 4,35.0457 12.9543,44 24,44 Z"
           stroke="#16a34a"
           stroke-width="4"
           stroke-linecap="round"
           stroke-linejoin="round"
           id="path1-1" /><path
           d="m 18,24 4,4 8,-8"
           stroke="#16a34a"
           stroke-width="4"
           stroke-linecap="round"
           stroke-linejoin="round"
           id="path2-7" /></g><g
         style="fill:none"
         id="g10"
         transform="translate(-10.582046,-70.971158)"><path
           d="M 24,44 C 35.0457,44 44,35.0457 44,24 44,12.9543 35.0457,4 24,4 12.9543,4 4,12.9543 4,24 4,35.0457 12.9543,44 24,44 Z"
           stroke="#ca8a04"
           stroke-width="4"
           stroke-linecap="round"
           stroke-linejoin="round"
           id="path1-0" /><path
           d="m 34,24 h 0.02"
           stroke="#ca8a04"
           stroke-width="4"
           stroke-linecap="round"
           stroke-linejoin="round"
           id="path2-8" /><path
           d="m 24,24 h 0.02"
           stroke="#ca8a04"
           stroke-width="4"
           stroke-linecap="round"
           stroke-linejoin="round"
           id="path3-8" /><path
           d="m 14,24 h 0.02"
           stroke="#ca8a04"
           stroke-width="4"
           stroke-linecap="round"
           stroke-linejoin="round"
           id="path4-9" /></g><path
         d="m -23.305418,-43.901855 h 0.02"
         stroke="#ca8a04"
         stroke-width="4"
         stroke-linecap="round"
         stroke-linejoin="round"
         id="path2-8-8"
         style="fill:none" /><g
         id="g12"><path
           d="m 108.06454,-98.80448 h 0.02"
           stroke="#ca8a04"
           stroke-width="4"
           stroke-linecap="round"
           stroke-linejoin="round"
           id="path3-8-0"
           style="fill:none;stroke:#000000;stroke-width:1.99937;stroke-dasharray:none;stroke-opacity:1" /><path
           d="m 102.0501,-98.80448 h 0.02"
           stroke="#ca8a04"
           stroke-width="4"
           stroke-linecap="round"
           stroke-linejoin="round"
           id="path4-9-3"
           style="fill:none;stroke:#000000;stroke-width:1.99937;stroke-dasharray:none;stroke-opacity:1" /><g
           style="fill:none"
           id="g11"
           transform="translate(85.301223,-116.44894)"><path
             d="M 20,6.64453 9,17.6445 l -5,-5"
             stroke="#000000"
             stroke-width="2"
             stroke-linecap="round"
             stroke-linejoin="round"
             id="path1-2"
             style="stroke-width:1.99937;stroke-dasharray:none" /></g></g><g
         style="fill:none;stroke:#16a34a;stroke-width:1.99937;stroke-linecap:round;stroke-linejoin:round;stroke-dasharray:none;stroke-opacity:1"
         id="g13"
         transform="translate(-3.3249436,-118.69919)"><path
           d="M 20,6 9,17 4,12"
           id="path1-02"
           style="stroke:#16a34a;stroke-width:1.99937;stroke-dasharray:none;stroke-opacity:1" /></g><g
         style="fill:none;stroke:#16a34a;stroke-width:4.36689;stroke-linecap:round;stroke-linejoin:round;stroke-dasharray:none;stroke-opacity:1"
         id="g14"
         transform="matrix(0.45784737,0,0,0.45784737,-0.33577776,-118.43727)"><path
           d="M 5,12 H 19"
           id="path1-23"
           style="stroke:#16a34a;stroke-width:4.36689;stroke-dasharray:none;stroke-opacity:1" /><path
           d="M 12,5 V 19"
           id="path2-1"
           style="stroke:#16a34a;stroke-width:4.36689;stroke-dasharray:none;stroke-opacity:1" /></g><g
         style="fill:none"
         id="g15"
         transform="translate(-39.972765,-208.30385)"><path
           d="m 27.0001,24.8393 v -9.6786 c 0,-0.7178 -0.3846,-1.3805 -1.0077,-1.7365 L 17.4923,8.56701 c -0.6149,-0.35135 -1.3697,-0.35135 -1.9846,0 L 7.00772,13.4242 C 6.38457,13.7802 6,14.4429 6,15.1606 v 9.6787 c 0,0.7177 0.38458,1.3804 1.00774,1.7365 l 8.50006,4.8571 c 0.6149,0.3513 1.3697,0.3513 1.9846,0 l 8.5,-4.8571 c 0.6231,-0.3561 1.0077,-1.0188 1.0077,-1.7365 z"
           fill="#bfdbfe"
           id="path1-7" /><path
           d="m 6,24.8393 c 0,0.7177 0.38458,1.3804 1.00773,1.7365 l 8.51977,4.8684 C 15.9608,31.6918 16.5,31.3789 16.5,30.8798 v -9.7192 c 0,-0.7177 -0.3846,-1.3804 -1.0077,-1.7365 L 6.97249,14.5557 C 6.53916,14.3081 6,14.621 6,15.1201 Z"
           fill="#93c5fd"
           id="path2-0" /><path
           d="m 43.0001,33.8393 v -9.6786 c 0,-0.7178 -0.3846,-1.3805 -1.0077,-1.7365 L 33.4923,17.567 c -0.6149,-0.3513 -1.3697,-0.3513 -1.9846,0 l -8.5,4.8572 C 22.3846,22.7802 22,23.4429 22,24.1606 v 9.6787 c 0,0.7177 0.3846,1.3804 1.0077,1.7365 l 8.5001,4.8571 c 0.6149,0.3513 1.3697,0.3513 1.9846,0 l 8.5,-4.8571 c 0.6231,-0.3561 1.0077,-1.0188 1.0077,-1.7365 z"
           fill="#3b82f6"
           id="path3-3" /><path
           d="m 22,33.8393 c 0,0.7177 0.3846,1.3804 1.0077,1.7365 l 8.5198,4.8684 C 31.9608,40.6918 32.5,40.3789 32.5,39.8798 v -9.7192 c 0,-0.7177 -0.3846,-1.3804 -1.0077,-1.7365 L 22.9725,23.5557 C 22.5392,23.3081 22,23.621 22,24.1201 Z"
           fill="#1e40af"
           id="path4-1" /></g><g
         id="g17"
         transform="matrix(0.89738326,0,0,1.0064559,-34.358922,-197.12395)"
         style="fill:none;stroke:#000000;stroke-width:2.64567;stroke-linecap:round;stroke-linejoin:round;stroke-dasharray:none;stroke-opacity:1"><path
           d="m 16,3 4,4 -4,4"
           id="path1-08"
           style="stroke:#000000;stroke-width:2.64567;stroke-dasharray:none;stroke-opacity:1" /><path
           d="M 20,7 H 4"
           id="path2-9"
           style="stroke:#000000;stroke-width:2.64567;stroke-dasharray:none;stroke-opacity:1" /></g><g
         id="g18"
         transform="matrix(0.89738326,0,0,1.0064559,-18.012377,-196.00769)"
         style="fill:none;stroke:#ffffff;stroke-width:2.64567;stroke-linecap:round;stroke-linejoin:round;stroke-dasharray:none"><path
           d="M 8,21 4,17 8,13"
           id="path3-30"
           style="stroke-width:2.64567;stroke-dasharray:none" /><path
           d="M 4,17 H 20"
           id="path4-5"
           style="stroke-width:2.64567;stroke-dasharray:none" /></g></g></g></svg>
