<svg width="20.5" xmlns="http://www.w3.org/2000/svg" height="20" fill="none"><g data-testid="template-switcher"><g data-testid="templatevm / blue"><g class="fills"><rect rx="0" ry="0" x=".5" width="20" height="20" class="frame-background"/></g><g class="frame-children"><g data-testid="svg-g" style="opacity: 0.4; fill: rgb(0, 0, 0);"><g data-testid="svg-g" filter="url(#a)" style="opacity: 0.782389; fill: rgb(0, 0, 0);"><defs><filter filterUnits="userSpaceOnUse" width="11.75" height="12.5" color-interpolation-filters="sRGB" class="svg-def" x=".5" id="a" data-old-y="1.25" data-old-width="11.75" data-old-x=".5" y="1.25" data-old-height="12.5"><feFlood flood-opacity="0" result="BackgroundImageFix"/><feColorMatrix in="SourceAlpha" values="0 0 0 0 0 0 0 0 0 0 0 0 0 0 0 0 0 0 127 0" result="hardAlpha"/><feOffset dx=".5"/><feColorMatrix values="0 0 0 0 0.054902 0 0 0 0 0.133333 0 0 0 0 0.462745 0 0 0 1 0"/><feBlend in2="BackgroundImageFix" result="effect1_dropShadow_3_278"/><feBlend in="SourceGraphic" in2="effect1_dropShadow_3_278" result="shape"/></filter></defs><path d="M11.101 3.914 6.713 1.42a1.34 1.34 0 0 0-1.303 0L1.022 3.914c-.253.14-.41.369-.522.623l4.027 2.285a2.312 2.312 0 0 1 1.187 2.011v4.854c.33.094.685.094.999-.08l4.388-2.494c.4-.229.649-.652.649-1.1V5.02c0-.458-.249-.877-.649-1.106Z" fill-rule="evenodd" clip-rule="evenodd" style="fill: rgb(68, 136, 223);" class="fills" data-testid="svg-path"/></g><path d="M.5 10.04c0 .458.249.885.651 1.116l4.401 2.519c.097.05.198.05.305.075V8.854c0-.839-.453-1.614-1.19-2.036L.627 4.511C.566 4.672.5 4.828.5 4.998v5.042Z" fill-rule="evenodd" clip-rule="evenodd" style="fill: rgb(14, 34, 118);" class="fills" data-testid="svg-path"/></g><g data-testid="svg-g" filter="url(#b)" style="fill: rgb(0, 0, 0);"><defs><filter filterUnits="userSpaceOnUse" width="11.75" height="12.5" color-interpolation-filters="sRGB" class="svg-def" x="8" id="b" data-old-y="7.5" data-old-width="11.75" data-old-x="8" y="7.5" data-old-height="12.5"><feFlood flood-opacity="0" result="BackgroundImageFix"/><feColorMatrix in="SourceAlpha" values="0 0 0 0 0 0 0 0 0 0 0 0 0 0 0 0 0 0 127 0" result="hardAlpha"/><feOffset dx=".5"/><feColorMatrix values="0 0 0 0 0.054902 0 0 0 0 0.133333 0 0 0 0 0.462745 0 0 0 1 0"/><feBlend in2="BackgroundImageFix" result="effect1_dropShadow_3_278"/><feBlend in="SourceGraphic" in2="effect1_dropShadow_3_278" result="shape"/></filter></defs><g style="mix-blend-mode: multiply;"><path d="M18.601 10.164 14.213 7.67a1.34 1.34 0 0 0-1.303 0l-4.388 2.494c-.253.14-.41.369-.522.623l4.027 2.285a2.312 2.312 0 0 1 1.187 2.011v4.854c.33.094.685.094.999-.08l4.388-2.494c.4-.229.649-.652.649-1.1V11.27c0-.458-.249-.877-.649-1.106Z" fill-rule="evenodd" clip-rule="evenodd" style="fill: rgb(68, 134, 223);" class="fills" data-testid="svg-path"/></g></g><path d="M8 16.29c0 .458.249.885.651 1.116l4.401 2.519c.097.05.198.05.305.075v-4.896c0-.839-.453-1.614-1.19-2.036l-4.04-2.307c-.061.161-.127.317-.127.487v5.042Z" fill-rule="evenodd" clip-rule="evenodd" style="fill: rgb(14, 34, 118);" class="fills" data-testid="svg-path"/></g></g><g data-testid="Group"><g data-testid="Graphics / arrow-left.svg"><g class="fills"><rect rx="0" ry="0" x="8" y="8" width="12" height="12" class="frame-background"/></g><g class="frame-children"><g data-testid="Graphics / arrow-left.svg" class="feather feather-arrow-left" style="fill: rgb(0, 0, 0);"><g data-testid="svg-line"><path d="M17.5 14h-7" fill="none" style="fill: none;" class="fills"/><g fill="none" stroke-linejoin="round" class="strokes"><path d="M17.5 14h-7" style="fill: none; stroke-width: 2; stroke: rgb(255, 255, 255); stroke-opacity: 1;" class="stroke-shape"/></g></g><g data-testid="svg-polyline"><path d="M14 17.5 10.5 14l3.5-3.5" fill="none" style="fill: none;" class="fills"/><g fill="none" stroke-linejoin="round" class="strokes"><path d="M14 17.5 10.5 14l3.5-3.5" style="fill: none; stroke-width: 1.5; stroke: rgb(255, 255, 255); stroke-opacity: 1;" class="stroke-shape"/></g></g></g></g></g></g><g data-testid="Group"><g data-testid="Graphics / arrow-left.svg"><g class="fills"><rect rx="0" ry="0" y="1.5" width="12" height="12" transform="matrix(-1 0 0 1 12 0)" class="frame-background"/></g><g class="frame-children"><g data-testid="Graphics / arrow-left.svg" class="feather feather-arrow-left" style="fill: rgb(0, 0, 0);"><g data-testid="svg-line"><path d="M2.5 7.5h7" fill="none" style="fill: none;" class="fills"/><g fill="none" stroke-linejoin="round" class="strokes"><path d="M2.5 7.5h7" style="fill: none; stroke-width: 2; stroke: rgb(0, 0, 0); stroke-opacity: 1;" class="stroke-shape"/></g></g><g data-testid="svg-polyline"><path d="m6 11 3.5-3.5L6 4" fill="none" style="fill: none;" class="fills"/><g fill="none" stroke-linejoin="round" class="strokes"><path d="m6 11 3.5-3.5L6 4" style="fill: none; stroke-width: 1.5; stroke: rgb(0, 0, 0); stroke-opacity: 1;" class="stroke-shape"/></g></g></g></g></g></g></g></svg>