<svg xmlns="http://www.w3.org/2000/svg" xml:space="preserve" width="24" height="24" viewBox="0 0 4.8 4.8">
    <g style="fill:none">
        <g style="fill:none">
            <path fill="#bfdbfe" d="M2.726 2.454V1.216a.26.26 0 0 0-.129-.221L1.51.374a.26.26 0 0 0-.253 0L.17.994a.26.26 0 0 0-.129.222v1.238c0 .092.05.176.129.222l1.087.62a.26.26 0 0 0 .253 0l1.087-.62a.26.26 0 0 0 .129-.222"/>
            <path fill="#93c5fd" d="M.041 2.454c0 .092.05.176.129.222l1.09.622a.083.083 0 0 0 .123-.072V1.984a.26.26 0 0 0-.128-.222l-1.09-.623a.083.083 0 0 0-.124.072Z"/>
            <path fill="#3b82f6" d="M4.771 3.604V2.367a.26.26 0 0 0-.129-.222l-1.086-.62a.26.26 0 0 0-.254 0l-1.087.62a.26.26 0 0 0-.128.222v1.237c0 .092.049.177.128.222l1.087.621a.26.26 0 0 0 .254 0l1.086-.62a.26.26 0 0 0 .13-.223"/>
            <path fill="#1e40af" d="M2.087 3.604c0 .092.049.177.128.222l1.09.623a.083.083 0 0 0 .124-.072V3.134a.26.26 0 0 0-.129-.222L2.21 2.29a.083.083 0 0 0-.123.072Z"/>
        </g>
        <g style="fill:none;stroke:#000;stroke-width:2.64567;stroke-linecap:round;stroke-linejoin:round;stroke-dasharray:none;stroke-opacity:1">
            <path d="m16 3 4 4-4 4M20 7H4" style="stroke:#000;stroke-width:2.64567;stroke-dasharray:none;stroke-opacity:1" transform="matrix(.11472 0 0 .12866 -.008 .708)"/>
        </g>
        <g style="fill:none;stroke:#fff;stroke-width:2.64567;stroke-linecap:round;stroke-linejoin:round;stroke-dasharray:none">
            <path d="m8 21-4-4 4-4M4 17h16" style="stroke-width:2.64567;stroke-dasharray:none" transform="matrix(.11472 0 0 .12866 2.082 .85)"/>
        </g>
    </g>
</svg>
