<?xml version="1.0" encoding="UTF-8" standalone="no"?>
<!-- Created with Inkscape (http://www.inkscape.org/) -->

<svg
   width="24"
   height="24"
   viewBox="0 0 4.8 4.8"
   version="1.1"
   id="svg1"
   xml:space="preserve"
   xmlns="http://www.w3.org/2000/svg"
   xmlns:svg="http://www.w3.org/2000/svg"><defs
     id="defs1" /><g
     id="layer1"
     transform="translate(-91.931357,-91.853124)"><g
       style="fill:none"
       id="g1"
       transform="matrix(0.26458333,0,0,0.26458333,98.472582,142.01773)"><g
         style="fill:none"
         id="g15"
         transform="matrix(0.48316512,0,0,0.48316512,-27.466008,-192.32585)"><path
           d="m 27.0001,24.8393 v -9.6786 c 0,-0.7178 -0.3846,-1.3805 -1.0077,-1.7365 L 17.4923,8.56701 c -0.6149,-0.35135 -1.3697,-0.35135 -1.9846,0 L 7.00772,13.4242 C 6.38457,13.7802 6,14.4429 6,15.1606 v 9.6787 c 0,0.7177 0.38458,1.3804 1.00774,1.7365 l 8.50006,4.8571 c 0.6149,0.3513 1.3697,0.3513 1.9846,0 l 8.5,-4.8571 c 0.6231,-0.3561 1.0077,-1.0188 1.0077,-1.7365 z"
           fill="#bfdbfe"
           id="path1-7" /><path
           d="m 6,24.8393 c 0,0.7177 0.38458,1.3804 1.00773,1.7365 l 8.51977,4.8684 C 15.9608,31.6918 16.5,31.3789 16.5,30.8798 v -9.7192 c 0,-0.7177 -0.3846,-1.3804 -1.0077,-1.7365 L 6.97249,14.5557 C 6.53916,14.3081 6,14.621 6,15.1201 Z"
           fill="#93c5fd"
           id="path2-0" /><path
           d="m 43.0001,33.8393 v -9.6786 c 0,-0.7178 -0.3846,-1.3805 -1.0077,-1.7365 L 33.4923,17.567 c -0.6149,-0.3513 -1.3697,-0.3513 -1.9846,0 l -8.5,4.8572 C 22.3846,22.7802 22,23.4429 22,24.1606 v 9.6787 c 0,0.7177 0.3846,1.3804 1.0077,1.7365 l 8.5001,4.8571 c 0.6149,0.3513 1.3697,0.3513 1.9846,0 l 8.5,-4.8571 c 0.6231,-0.3561 1.0077,-1.0188 1.0077,-1.7365 z"
           fill="#3b82f6"
           id="path3-3" /><path
           d="m 22,33.8393 c 0,0.7177 0.3846,1.3804 1.0077,1.7365 l 8.5198,4.8684 C 31.9608,40.6918 32.5,40.3789 32.5,39.8798 v -9.7192 c 0,-0.7177 -0.3846,-1.3804 -1.0077,-1.7365 L 22.9725,23.5557 C 22.5392,23.3081 22,23.621 22,24.1201 Z"
           fill="#1e40af"
           id="path4-1" /></g><g
         id="g17"
         transform="matrix(0.43358429,0,0,0.48628439,-24.753594,-186.92411)"
         style="fill:none;stroke:#000000;stroke-width:2.64567;stroke-linecap:round;stroke-linejoin:round;stroke-dasharray:none;stroke-opacity:1"><path
           d="m 16,3 4,4 -4,4"
           id="path1-08"
           style="stroke:#000000;stroke-width:2.64567;stroke-dasharray:none;stroke-opacity:1" /><path
           d="M 20,7 H 4"
           id="path2-9"
           style="stroke:#000000;stroke-width:2.64567;stroke-dasharray:none;stroke-opacity:1" /></g><g
         id="g18"
         transform="matrix(0.43358429,0,0,0.48628439,-16.855514,-186.38477)"
         style="fill:none;stroke:#ffffff;stroke-width:2.64567;stroke-linecap:round;stroke-linejoin:round;stroke-dasharray:none"><path
           d="M 8,21 4,17 8,13"
           id="path3-30"
           style="stroke-width:2.64567;stroke-dasharray:none" /><path
           d="M 4,17 H 20"
           id="path4-5"
           style="stroke-width:2.64567;stroke-dasharray:none" /></g></g></g></svg>
