<svg xmlns="http://www.w3.org/2000/svg" width="24" height="24" fill="none" viewBox="0 0 22 22">
    <g id="Settings Blak">
        <g id="Group 6">
            <g id="Group 3">
                <mask id="mask0_0_899" width="22" height="22" x="0" y="0" maskUnits="userSpaceOnUse" style="mask-type:luminance">
                    <path id="Clip 2" fill="#fff" fill-rule="evenodd" d="M0 .104h21.974V22H0z" clip-rule="evenodd"/>
                </mask>
                <g mask="url(#mask0_0_899)">
                    <path id="Fill 1" fill="#ABABAB" fill-rule="evenodd" d="M4.477 11.08c-.025-3.539 2.855-6.428 6.432-6.453 3.578-.024 6.498 2.825 6.523 6.364v.05q0 .543-.09 1.08l3.627 3.62a.3.3 0 0 0 .029-.06q.342-.924.68-1.852a.3.3 0 0 0-.156-.362c-.54-.397-1.076-.797-1.622-1.183a.47.47 0 0 1-.212-.473c.024-.187.03-.373.04-.56 0-.155.095-.295.24-.355.583-.289 1.164-.577 1.743-.873q.143-.096.263-.22V9.59q-.11-.438-.21-.88c-.077-.331-.144-.662-.218-.993a.303.303 0 0 0-.323-.28c-.674-.042-1.349-.087-2.023-.125a.43.43 0 0 1-.402-.237 5 5 0 0 0-.24-.425.41.41 0 0 1 0-.457q.508-.846 1.012-1.696a.317.317 0 0 0-.057-.473l-1.334-1.358a.305.305 0 0 0-.457-.064c-.576.32-1.155.636-1.729.96a.44.44 0 0 1-.5 0c-.129-.08-.263-.15-.397-.236a.4.4 0 0 1-.208-.383c-.019-.648-.043-1.301-.062-1.954 0-.31-.053-.355-.361-.428L12.729.14a1 1 0 0 1-.093-.037h-.216q-.116.136-.212.286-.454.826-.895 1.656a.39.39 0 0 1-.413.258q-.252-.01-.503.021a.41.41 0 0 1-.399-.198c-.38-.552-.765-1.1-1.148-1.656-.072-.16-.264-.232-.426-.16L8.39.326 6.617.927a.282.282 0 0 0-.24.35c.046.606.082 1.214.146 1.817a.58.58 0 0 1-.306.672 3 3 0 0 0-.39.267.44.44 0 0 1-.478.048l-1.843-.762a.325.325 0 0 0-.479.118L1.913 4.821a.298.298 0 0 0 0 .473c.39.513.777 1.03 1.172 1.538a.42.42 0 0 1 .067.473c-.11.236-.208.473-.306.729a.4.4 0 0 1-.328.26q-.99.175-1.98.357a.34.34 0 0 0-.35.364c-.054.473-.107.946-.162 1.403q-.01.06-.026.118v.488l1.174.416c.311.111.62.237.93.336.157.048.27.184.287.345.05.298.108.599.165.897a.44.44 0 0 1-.158.447c-.485.442-.963.894-1.441 1.344a.305.305 0 0 0-.08.454l.773 1.497a.294.294 0 0 0 .404.192q.982-.215 1.961-.438a.38.38 0 0 1 .387.114l.718.745c.11.104.15.26.105.402q-.256.983-.502 1.97a.283.283 0 0 0 .152.373l.01.004 1.5.844a.29.29 0 0 0 .42-.059c.479-.473.938-.946 1.402-1.42a.44.44 0 0 1 .452-.136q.474.113.956.212a.41.41 0 0 1 .33.299c.201.61.41 1.218.608 1.828a.52.52 0 0 0 .222.31h.763l.799-.092.301-.04a.324.324 0 0 0 .35-.295l.002-.013c.136-.639.275-1.28.401-1.923a.46.46 0 0 1 .325-.372c.125-.042.24-.087.371-.134l-1.808-1.803q-.633.122-1.279.116c-3.578.025-6.498-2.824-6.523-6.363" clip-rule="evenodd"/>
                </g>
            </g>
            <path id="Fill 4" fill="#000" fill-rule="evenodd" d="M19.515 17.274c-.81-.803 0-.017-.81-.816l-.279-.275c-.86-.853.25.25-.615-.603-.94-.926-1.884-1.848-2.822-2.776a2.04 2.04 0 0 1-.636-1.705q0-.128.017-.255a4 4 0 0 0-.03-.755c-.286-2.114-2.572-3.572-4.638-2.94-.26.078-.277.135-.085.323q.707.7 1.42 1.398a1.123 1.123 0 0 1 .018 1.693c-.182.183-.365.362-.547.545-.563.562-1.244.56-1.807 0q-.66-.66-1.33-1.31c-.166-.159-.217-.145-.283.072a3 3 0 0 0-.087.788 3.56 3.56 0 0 0 1.894 3.203c.6.323 1.281.476 1.965.44h.16a2 2 0 0 1 1.536.608l1.722 1.695 2.15 2.1.809.808a1.593 1.593 0 0 0 2.278.017 1.55 1.55 0 0 0 0-2.255" clip-rule="evenodd"/>
        </g>
    </g>
</svg>
